<?xml version="1.0" encoding="UTF-8" standalone="no"?>
<!-- Created with Inkscape (http://www.inkscape.org/) -->
<svg
   xmlns:svg="http://www.w3.org/2000/svg"
   xmlns="http://www.w3.org/2000/svg"
   version="1.0"
   width="921.25983"
   height="425.19684"
   id="svg1878">
  <defs
     id="defs1880" />
  <g
     id="layer1">
    <g
       transform="matrix(3.543307e-5,0,0,3.543307e-5,-1.591158e-3,-3.551412e-4)"
       style="fill-rule:evenodd"
       id="Ebene_x0020_1">
  
  <g
   id="_96518472">
   <path
   d="M 19581000,6187110 L 20716700,4378400 L 21852780,6187110 L 19581000,6187110 z M 23108560,4610910 L 20716700,803420 L 18325490,4610910 L 15934000,8418110 L 18180260,8418110 L 18325490,8186250 L 18736690,7531460 L 22696710,7531460 L 23108560,8186250 L 23254440,8418110 L 25500040,8418110 L 23108560,4610910 z M 14522810,4324970 L 12337390,4324970 L 12337390,2701610 L 14522810,2701610 C 14993560,2701610 15421200,2901300 15421200,3513120 C 15421200,4124920 14926990,4324970 14522810,4324970 z M 14708440,840030 L 10454820,840030 L 10454820,8418110 L 12337390,8418110 L 12337390,6190900 L 14708440,6190900 C 16398640,6190900 17304420,4787390 17304420,3514690 C 17304520,2240780 16370630,840030 14708440,840030 L 14708440,840030 z M 4147240,6187110 L 5283210,4378400 L 6419920,6187110 L 4147240,6187110 L 4147240,6187110 z M 7675810,4610910 L 5283210,803420 L 2891720,4610910 L 500050,8418110 L 2746030,8418110 L 2891720,8186250 L 3303020,7531460 L 7264520,7531460 L 7675810,8186250 L 7821880,8418110 L 10067840,8418110 L 7675810,4610910 L 7675810,4610910 z "
   id="_47527040" />

   <polygon
   points="500190,8418110 25500000,8418110 25500000,11196600 500190,11196600 500190,8418110 "
   style="fill:red"
   id="_96240744" />

  </g>

 </g>
  </g>
</svg>
