<svg xmlns="http://www.w3.org/2000/svg" viewBox="0 0 500 81.061"><path fill="#1E1E1E" d="M187.398 56.5c0-1.665 2.245-1.448 4.49-2.173 3.043-1.015 3.043-3.55 3.043-6.3V21.443c0-2.608-.432-3.26-4.563-3.26-5.143 0-7.028.218-7.97 2.97-1.23 3.475-.58 4.635-2.39 4.635-1.085 0-1.45-.65-1.45-1.883 0-1.16.217-2.608.363-7.388.072-1.45.145-2.318 1.303-2.318h37.015c1.087 0 1.303.798 1.303 2.318 0 4.345.29 6.228.29 7.388 0 1.233-.29 1.883-1.448 1.883-1.81 0-1.16-1.085-2.393-4.635-.942-2.753-2.825-2.97-7.968-2.97-3.983 0-4.42.653-4.42 3.26v26.585c0 2.75 0 5.358 3.043 6.3 2.245.725 4.42.507 4.493 2.173 0 .798-.51 1.16-1.595 1.16h-19.558c-1.08-.001-1.588-.363-1.588-1.161m-43.817 1.16c-1.595 0-2.1-1.015-2.39-2.825l-1.378-9.635c-.29-2.1-.29-3.623 1.378-3.623 1.447 0 1.665 1.085 2.028 3.26 1.085 6.228 5.868 11.153 14.485 11.153 6.23 0 11.59-3.115 11.59-8.983 0-5.793-5.07-7.895-13.475-11.37-9.343-3.84-15.283-6.738-15.283-15.285.002-8.324 5.87-15.352 16.59-15.352 5.65 0 8.33 1.81 13.183 2.1 1.303.145 1.665.868 1.738 1.665.072.943 1.015 11.083 1.015 11.953 0 1.158-.432 1.74-1.593 1.74-1.668 0-1.883-1.52-2.173-3.405-.943-6.735-5.868-10.36-12.315-10.36-6.158 0-10.068 3.333-10.068 7.75 0 4.128 3.405 6.955 11.083 10.07 9.78 3.91 17.603 6.01 17.603 16.515 0 10.648-8.185 17.168-18.18 17.168-5.653-.001-9.566-2.536-13.838-2.536m-9.92-1.377c0 1.015-.58 1.378-1.885 1.378h-6.3c-2.103 0-3.333-.725-4.925-3.405l-7.608-13.038c-1.085-1.813-1.665-2.535-4.128-2.535h-1.955c-2.03 0-2.61.508-2.61 2.245v7.025c0 3.26.868 5.288 2.825 6.303 1.52.798 3.333.725 3.333 2.245 0 .798-.363 1.16-1.45 1.16h-16.66c-.798 0-1.233-.363-1.233-1.16 0-1.665 1.665-1.375 3.405-2.173 2.173-.943 2.173-3.26 2.173-5.868V23.833c0-2.968 0-5.358-2.608-6.3-2.173-.798-4.418-.435-4.418-2.175 0-.798.363-1.158 1.085-1.158h20.718c9.418 0 14.703 3.983 14.703 11.37 0 4.928-2.535 8.693-6.81 10.72-.65.435-.798.868-.433 1.45l9.125 13.838c2.976 4.56 5.656 2.605 5.656 4.705m-14.775-29.408c0-6.3-3.985-9.2-10.288-9.2-3.768 0-4.345.798-4.345 3.188v11.735c0 2.028.363 2.75 3.55 2.75h2.103c6.227 0 8.98-3.113 8.98-8.473M53.988 56.5c0-1.665 1.665-1.375 3.185-2.1 2.245-.94 2.39-3.043 2.39-5.94V23.833c0-3.115-.07-5.363-2.753-6.305-2.028-.798-4.273-.433-4.273-2.173 0-.798.363-1.158 1.085-1.158h29.915c1.378 0 1.882.58 1.882 1.738v6.3c0 1.085-.363 1.523-1.158 1.523-1.738 0-.942-2.175-2.1-3.84-1.233-1.81-3.91-2.393-9.853-2.393-3.693 0-5.143.87-5.143 3.623v9.778c0 1.81.725 2.61 2.68 2.61h2.028c2.75 0 5.143-.363 6.445-1.885 1.45-1.738.943-3.258 2.318-3.258.868 0 1.16.58 1.16 1.013v12.243c0 .653-.363 1.305-1.233 1.305-1.52 0-1.013-1.668-1.738-3.333-.943-2.173-3.043-2.753-6.52-2.753H69.85c-2.32 0-2.68.943-2.68 3.478v10.36c0 2.753 1.375 3.623 6.23 3.623 6.375 0 8.475-.943 9.995-3.115 1.45-2.028 1.375-4.128 3.043-4.128.725 0 1.085.433.868 1.448l-1.015 6.375C86 56.79 85.13 57.66 83.465 57.66h-28.25c-.795 0-1.227-.362-1.227-1.16m-48.963 0c0-1.738 2.245-1.375 4.2-2.1 2.828-1.013 2.828-3.55 2.828-6.375V23.833c0-3.115 0-5.358-2.828-6.373-1.955-.728-4.2-.365-4.2-2.103 0-.798.435-1.158 1.158-1.158h19.92c15.428 0 25.28 7.965 25.28 20.57 0 13.908-9.853 22.89-25.28 22.89H6.113c-.653.001-1.088-.361-1.088-1.159m38.463-19.775c0-11.735-6.52-19.195-16.733-19.195-6.445 0-7.1 2.533-7.1 8.04v20.718c0 5.505.653 8.04 7.1 8.04 10.213 0 16.733-6.663 16.733-17.603M214.849 56.5c0-1.375 1.593-1.593 2.825-2.1 1.738-.725 2.607-2.39 3.768-5.07l15.79-35.855c.215-.508.65-.87 1.085-.87.435 0 .867.363 1.085.87l15.645 35.71c1.232 2.825 2.103 4.2 3.768 5.07 1.232.65 2.825.868 2.825 2.173 0 .798-.432 1.233-1.448 1.233h-16.66c-.723 0-1.085-.433-1.085-1.085 0-.87.798-1.378 2.318-1.593 2.175-.435 2.825-.943 2.825-2.1 0-.728-.362-2.03-1.303-4.203l-1.375-3.188c-.943-2.245-1.45-2.753-4.563-2.753h-8.113c-2.608 0-3.695 0-4.853 2.753L225.5 50.13c-.362.868-.58 1.738-.58 2.245 0 1.738 1.012 2.028 3.403 2.39 2.248.29 3.55.507 3.55 1.81 0 .58-.292 1.085-1.088 1.085h-14.778c-.726 0-1.158-.362-1.158-1.16m26.22-17.167c.58 0 .867-.433.867-.94 0-.435-.29-1.015-.58-1.74l-4.563-11.008c-.217-.435-.362-.508-.65-.508-.29 0-.58.145-.728.578l-4.49 10.938c-.29.728-.58 1.378-.58 1.74 0 .508.29.94.868.94h9.856zM5 74.973v-3.84c0-.653.435-1.085 1.085-1.085H492.92c.65 0 1.085.433 1.085 1.085v3.84c0 .65-.435 1.088-1.085 1.088H6.085C5.435 76.06 5 75.623 5 74.973m295.172-19.56L275.399 26.44c-.87-1.015-1.233-1.233-1.593-1.233-.508 0-.797.435-.797 1.015v15.065c0 5.65 0 10.068 2.173 12.313 2.1 2.1 5.578.798 5.578 2.97 0 .725-.363 1.085-1.085 1.085h-14.778c-.797 0-1.16-.363-1.16-1.085 0-1.738 2.175-1.378 3.622-2.825 2.245-2.318 2.245-5.505 2.245-10.865V25.785c0-3.185 0-5.868-1.665-7.46-2.245-2.175-5.215-.943-5.215-3.043 0-.65.29-1.085.943-1.085h9.635c1.738 0 2.245.725 3.838 2.608l20.718 24.338c1.375 1.593 1.885 2.175 2.463 2.175.58 0 .943-.29.943-1.085V28.975c0-4.78 0-8.983-2.315-10.938-2.393-2.028-5.505-.653-5.505-2.825 0-.725.363-1.088 1.085-1.088h14.705c.868 0 1.23.363 1.23 1.088 0 1.738-2.173 1.23-3.62 2.68-2.103 1.958-2.175 4.275-2.175 9.635V56.79c0 1.015-.362 1.523-1.087 1.523-1.02 0-1.96-1.16-3.41-2.9m13.395 1.087c0-1.665 1.668-1.375 3.185-2.028 1.958-.87 2.393-2.753 2.393-6.013V23.833c0-2.898 0-5.358-2.825-6.373-1.957-.728-4.203-.363-4.203-2.103 0-.798.362-1.158 1.087-1.158h19.99c15.428 0 25.28 7.965 25.28 20.57 0 13.908-9.853 22.89-25.28 22.89h-18.4c-.792.001-1.227-.361-1.227-1.159m37.015-19.775c0-11.735-6.518-19.195-16.733-19.195-6.445 0-7.1 2.533-7.1 8.04v20.718c0 5.505.652 8.04 7.1 8.04 10.213 0 16.733-6.663 16.733-17.603m99.51 19.775c0-1.665 1.668-1.375 3.185-2.028 1.958-.87 2.393-2.753 2.393-6.013V23.833c0-2.898 0-5.358-2.825-6.373-1.958-.728-4.2-.363-4.2-2.103 0-.798.363-1.158 1.085-1.158h19.99c15.428 0 25.28 7.968 25.28 20.57 0 13.908-9.853 22.89-25.28 22.89h-18.398c-.795.001-1.23-.361-1.23-1.159m37.015-19.775c0-11.735-6.518-19.195-16.733-19.195-6.445 0-7.1 2.533-7.1 8.04v20.718c0 5.505.652 8.04 7.1 8.04 10.213 0 16.733-6.663 16.733-17.603m-39.11 19.558c0 1.015-.58 1.378-1.885 1.378h-6.3c-2.103 0-3.332-.725-4.927-3.405l-7.605-13.038c-1.085-1.813-1.668-2.535-4.128-2.535h-1.958c-2.028 0-2.608.507-2.608 2.245v7.025c0 3.26.868 5.288 2.825 6.303 1.52.798 3.332.725 3.332 2.245 0 .798-.363 1.16-1.45 1.16h-16.66c-.797 0-1.232-.363-1.232-1.16 0-1.665 1.668-1.375 3.405-2.173 2.173-.943 2.173-3.26 2.173-5.868V23.833c0-2.968 0-5.358-2.608-6.3-2.175-.798-4.418-.435-4.418-2.175 0-.798.363-1.158 1.085-1.158h20.715c9.418 0 14.705 3.983 14.705 11.37 0 4.928-2.535 8.693-6.81 10.72-.653.435-.798.868-.435 1.45l9.128 13.838c2.976 4.56 5.656 2.605 5.656 4.705M433.22 26.875c0-6.3-3.983-9.2-10.285-9.2-3.768 0-4.345.798-4.345 3.188v11.735c0 2.028.363 2.75 3.55 2.75h2.1c6.227 0 8.98-3.113 8.98-8.473M356.734 56.5c0-1.375 1.592-1.593 2.825-2.1 1.738-.725 2.608-2.39 3.765-5.07l15.793-35.855c.215-.508.65-.87 1.085-.87s.867.363 1.085.87l15.645 35.71c1.233 2.825 2.103 4.2 3.768 5.07 1.232.65 2.825.868 2.825 2.173 0 .798-.432 1.233-1.447 1.233h-16.66c-.723 0-1.085-.433-1.085-1.085 0-.87.798-1.378 2.318-1.593 2.175-.435 2.825-.943 2.825-2.1 0-.728-.363-2.03-1.302-4.203l-1.375-3.188c-.943-2.245-1.45-2.753-4.562-2.753h-8.113c-2.61 0-3.695 0-4.853 2.753l-1.883 4.638c-.363.868-.58 1.738-.58 2.245 0 1.738 1.012 2.028 3.402 2.39 2.245.29 3.55.507 3.55 1.81 0 .58-.293 1.085-1.088 1.085h-14.778c-.727 0-1.16-.362-1.16-1.16m26.22-17.167c.58 0 .867-.433.867-.94 0-.435-.29-1.015-.58-1.74l-4.563-11.008c-.217-.435-.362-.508-.65-.508s-.58.145-.728.578l-4.49 10.938c-.29.728-.58 1.378-.58 1.74 0 .508.29.94.868.94h9.856z"/></svg>