<?xml version="1.0" encoding="UTF-8" standalone="no"?>
<svg
   xmlns:dc="http://purl.org/dc/elements/1.1/"
   xmlns:cc="http://creativecommons.org/ns#"
   xmlns:rdf="http://www.w3.org/1999/02/22-rdf-syntax-ns#"
   xmlns:svg="http://www.w3.org/2000/svg"
   xmlns="http://www.w3.org/2000/svg"
   xmlns:sodipodi="http://sodipodi.sourceforge.net/DTD/sodipodi-0.dtd"
   xmlns:inkscape="http://www.inkscape.org/namespaces/inkscape"
   inkscape:version="1.0 (4035a4fb49, 2020-05-01)"
   sodipodi:docname="Kleine Zeitung (2021-01-21).svg"
   id="svg2388"
   version="1.2"
   viewBox="0 0 300 152.11122"
   height="152.11122pt"
   width="300pt">
  <metadata
     id="metadata2392">
    <rdf:RDF>
      <cc:Work
         rdf:about="">
        <dc:format>image/svg+xml</dc:format>
        <dc:type
           rdf:resource="http://purl.org/dc/dcmitype/StillImage" />
        <dc:title></dc:title>
      </cc:Work>
    </rdf:RDF>
  </metadata>
  <sodipodi:namedview
     inkscape:current-layer="svg2388"
     inkscape:window-maximized="1"
     inkscape:window-y="-8"
     inkscape:window-x="-8"
     inkscape:cy="182.97544"
     inkscape:cx="355.54287"
     inkscape:zoom="1.5596072"
     fit-margin-bottom="0"
     fit-margin-right="0"
     fit-margin-left="0"
     fit-margin-top="0"
     showgrid="false"
     id="namedview2390"
     inkscape:window-height="837"
     inkscape:window-width="1600"
     inkscape:pageshadow="2"
     inkscape:pageopacity="0"
     guidetolerance="10"
     gridtolerance="10"
     objecttolerance="10"
     borderopacity="1"
     bordercolor="#666666"
     pagecolor="#ffffff" />
  <defs
     id="defs853" />
  <path
     id="path1099"
     d="M 0,152.11122 H 300.00001 V 0 H 0 Z m 0,0"
     style="clip-rule:nonzero;fill:#5eabd7;fill-opacity:1;fill-rule:nonzero;stroke:none;stroke-width:0.856527" />
  <path
     id="path1101"
     d="M 0,152.07824 H 299.98983 V 0 H 0 Z m 0,0"
     style="clip-rule:nonzero;fill:#ca171c;fill-opacity:1;fill-rule:nonzero;stroke:none;stroke-width:0.856527" />
  <path
     style="fill:#ffffff;fill-opacity:1;fill-rule:nonzero;stroke:none;stroke-width:1.40711"
     d="M 18.803657,20.53507 H 32.330638 V 40.31711 L 49.117066,20.53507 H 65.155964 L 46.682099,41.49885 65.777072,69.30586 H 49.534802 L 37.28302,51.18376 32.330638,56.69679 V 69.30586 H 18.803657 Z m 0,0"
     id="path1105" />
  <path
     style="fill:#ffffff;fill-opacity:1;fill-rule:nonzero;stroke:none;stroke-width:1.40711"
     d="M 71.773796,20.53507 H 85.295281 V 57.45532 H 108.9249 V 69.30586 H 71.773796 Z m 0,0"
     id="path1107" />
  <path
     style="fill:#ffffff;fill-opacity:1;fill-rule:nonzero;stroke:none;stroke-width:1.40711"
     d="m 116.44966,20.53507 h 39.24528 v 11.48226 h -25.8667 v 7.38736 h 23.43174 v 10.66329 h -23.43174 v 7.73914 h 26.21848 v 11.49874 h -39.59706 z m 47.47359,0 h 13.59295 v 48.77079 h -13.59295 z m 0,0"
     id="path1109" />
  <path
     style="fill:#ffffff;fill-opacity:1;fill-rule:nonzero;stroke:none;stroke-width:1.40711"
     d="m 187.12964,20.53507 h 12.60906 l 20.07886,25.77878 V 20.53507 h 13.37857 V 69.30586 H 221.3511 L 200.50821,42.54322 v 26.76264 h -13.37857 z m 0,0"
     id="path1111" />
  <path
     style="fill:#ffffff;fill-opacity:1;fill-rule:nonzero;stroke:none;stroke-width:1.40711"
     d="m 242.53475,20.53507 h 39.24527 v 11.48226 h -25.8612 v 7.38736 h 23.41525 v 10.66329 h -23.41525 v 7.73914 h 26.19651 v 11.49874 h -39.58058 z m 0,0"
     id="path1113" />
  <path
     style="fill:#ffffff;fill-opacity:1;fill-rule:nonzero;stroke:none;stroke-width:1.40711"
     d="m 17.885737,128.10234 26.48232,-40.46555 h -25.51493 v -4.7435 h 32.281168 v 3.54527 l -26.49881,40.48202 h 26.49881 v 4.7435 H 17.885737 Z m 0,0"
     id="path1115" />
  <path
     style="fill:#ffffff;fill-opacity:1;fill-rule:nonzero;stroke:none;stroke-width:1.40711"
     d="m 60.676286,82.89329 h 29.763753 v 4.80949 H 65.897996 v 16.98429 h 22.035622 v 4.74353 H 65.897996 v 17.41851 h 24.893823 v 4.81497 H 60.676286 Z m 39.245282,0 h 5.221712 v 48.77079 h -5.221712 z m 0,0"
     id="path1117" />
  <path
     style="fill:#ffffff;fill-opacity:1;fill-rule:nonzero;stroke:none;stroke-width:1.40711"
     d="M 127.03049,87.77422 H 113.3661 v -4.88093 h 32.61645 v 4.88093 H 132.2522 v 43.88986 h -5.22171 z m 0,0"
     id="path1119" />
  <path
     style="fill:#ffffff;fill-opacity:1;fill-rule:nonzero;stroke:none;stroke-width:1.40711"
     d="M 153.93605,113.47605 V 82.88778 h 5.2217 v 30.44534 c 0,9.2067 4.67207,14.28551 12.33974,14.28551 7.4588,0 12.20231,-4.81497 12.20231,-14.07114 V 82.88778 h 5.23271 v 30.30794 c 0,12.53758 -7.05207,19.2324 -17.57794,19.2324 -10.38295,0 -17.41852,-6.69482 -17.41852,-18.95207"
     id="path1121" />
  <path
     style="fill:#ffffff;fill-opacity:1;fill-rule:nonzero;stroke:none;stroke-width:1.40711"
     d="m 199.11759,82.89329 h 4.95238 l 25.50945,38.38232 V 82.89329 h 5.15024 v 48.77079 h -4.38623 L 204.21289,92.34734 v 39.31674 h -5.0953 z m 0,0"
     id="path1123" />
  <path
     style="fill:#ffffff;fill-opacity:1;fill-rule:nonzero;stroke:none;stroke-width:1.40711"
     d="m 244.12326,107.55078 v -0.4947 c 0,-14.1426 8.92087,-24.86084 21.73881,-24.86084 6.34847,0 10.5973,1.81386 14.77467,5.21623 l -3.12201,4.19385 c -3.00114,-2.66035 -6.48593,-4.52916 -11.79559,-4.52916 -9.25618,0 -16.16531,8.34375 -16.16531,19.97992 v 0.3518 c 0,12.27374 6.62883,20.20524 16.66,20.20524 4.17737,0 8.01944,-1.53353 10.52587,-3.4738 v -13.73584 h -12.2023 v -4.66656 h 17.22613 v 20.90883 c -3.77062,3.06707 -9.27266,5.71088 -15.75856,5.71088 -13.31263,0 -21.88171,-10.10261 -21.88171,-24.80585"
     id="path1125" />
</svg>
